PathFileType	4	(X/Y/Z)	/Users/itak/Documents/Research/Walk-IL/dataset/trc/00138_00007.trc
DataRate	CameraRate	NumFrames	NumMarkers	Units	OrigDataRate	OrigDataStartFrame	OrigNumFrames
100.000000	100.000000	4	53	mm	100.000000	351	563
Frame#	Time	RPSI			LPSI			L3			STRN			T10			C7			CLAV			RBAK			LBAK			LSHO			LUPA			LAEL			LAOL			LWTS			LWPS			LFRA			LIFD			LHPS			LHTS			RSHO			RUPA			RAEL			RAOL			RWTS			RWPS			RFRA			RIFD			RHTS			RHPS			RBHD			LFHD			RFHD			LBHD			LHIP			RHIP			RASI			LASI			LKNE			LTHI			LANK			LTIP			LTOE			LMT1			LMT5			LHEE			RKNE			RTHI			RANK			RTIP			RTOE			RMT1			RMT5			RHEE			
		X1	Y1	Z1	X2	Y2	Z2	X3	Y3	Z3	X4	Y4	Z4	X5	Y5	Z5	X6	Y6	Z6	X7	Y7	Z7	X8	Y8	Z8	X9	Y9	Z9	X10	Y10	Z10	X11	Y11	Z11	X12	Y12	Z12	X13	Y13	Z13	X14	Y14	Z14	X15	Y15	Z15	X16	Y16	Z16	X17	Y17	Z17	X18	Y18	Z18	X19	Y19	Z19	X20	Y20	Z20	X21	Y21	Z21	X22	Y22	Z22	X23	Y23	Z23	X24	Y24	Z24	X25	Y25	Z25	X26	Y26	Z26	X27	Y27	Z27	X28	Y28	Z28	X29	Y29	Z29	X30	Y30	Z30	X31	Y31	Z31	X32	Y32	Z32	X33	Y33	Z33	X34	Y34	Z34	X35	Y35	Z35	X36	Y36	Z36	X37	Y37	Z37	X38	Y38	Z38	X39	Y39	Z39	X40	Y40	Z40	X41	Y41	Z41	X42	Y42	Z42	X43	Y43	Z43	X44	Y44	Z44	X45	Y45	Z45	X46	Y46	Z46	X47	Y47	Z47	X48	Y48	Z48	X49	Y49	Z49	X50	Y50	Z50	X51	Y51	Z51	X52	Y52	Z52	X53	Y53	Z53	

352	3.51	507.7673034667969	1108.044555664062	688.42578125	418.8264770507812	1114.284545898438	591.5794677734375	455.5915832519531	1145.459716796875	645.8531494140625	614.0546875	1351.132690429688	495.7124633789062	446.9021301269531	1293.387573242188	678.7807006835938	446.2627868652344	1587.226806640625	650.3714599609375	579.29931640625	1485.28466796875	516.9505004882812	482.1189575195312	1404.358154296875	748.609375	365.989501953125	1564.8681640625	587.1217041015625	371.1368408203125	1551.491577148438	476.6559753417969	305.1860961914062	1416.764404296875	454.2438354492188	293.6558227539062	1199.0185546875	445.8683776855469	310.4412231445312	1189.631469726562	533.0568237304688	378.8464050292969	938.7534790039062	388.9010314941406	315.4392700195312	915.635986328125	449.472412109375	297.0103759765625	1082.27392578125	434.9078674316406	401.0781860351562	742.6952514648438	395.0460205078125	331.7520446777344	838.2021484375	430.0923156738281	377.7105407714844	847.565673828125	378.9603271484375	617.9988403320312	1576.323974609375	728.6339111328125	656.4627075195312	1504.357299804688	784.1015625	678.7279052734375	1210.603149414062	806.820556640625	604.2570190429688	1203.286499023438	742.617919921875	797.3438720703125	984.1663208007812	687.9788208007812	766.07373046875	959.8094482421875	760.3124389648438	712.6988525390625	1140.028564453125	798.8306274414062	823.4307250976562	795.2513427734375	643.4427490234375	833.3472900390625	881.4266967773438	664.4363403320312	804.6475830078125	864.3744506835938	730.3390502929688	542.0965576171875	1760.791625976562	670.6021118164062	472.3882446289062	1830.6416015625	473.4176940917969	590.7874755859375	1849.972412109375	523.3443603515625	416.0502014160156	1744.853637695312	625.905029296875	412.7488098144531	1033.911865234375	439.6679382324219	676.2376708984375	1008.571228027344	689.5604248046875	707.2301635742188	1084.845336914062	598.0631713867188	521.1055297851562	1096.9501953125	407.9096984863281	549.8795166015625	541.0830078125	385.9024353027344	481.9697875976562	676.8123779296875	399.4266662597656	576.8896484375	32.29043197631836	427.3892517089844	515.8138427734375	277.9844055175781	414.641357421875	756.1290893554688	44.16995620727539	275.919189453125	738.3654174804688	44.447265625	358.3597106933594	631.6158447265625	42.03319931030273	314.3208312988281	588.6360473632812	33.33732986450195	518.6286010742188	642.1152954101562	513.1500244140625	694.2905883789062	680.3834228515625	795.8536376953125	674.501708984375	365.6480407714844	129.3159332275391	953.375732421875	583.0049438476562	408.4710388183594	771.7482299804688	477.4098815917969	38.96845245361328	785.289306640625	408.8700561523438	48.03520584106445	785.7199096679688	455.519287109375	50.06693267822266	897.757080078125	301.6520690917969	168.4053039550781	940.85400390625	
353	3.52	513.2192993164062	1108.30859375	681.11865234375	423.9744262695312	1115.053344726562	584.7940673828125	461.1415100097656	1146.098510742188	638.93310546875	618.9288330078125	1352.079833984375	487.9105529785156	452.4962768554688	1294.080200195312	671.8147583007812	452.212158203125	1587.910278320312	644.1276245117188	584.4376220703125	1486.216674804688	509.6855773925781	488.3874206542969	1404.910888671875	741.645751953125	371.5614013671875	1565.8984375	581.138671875	376.1795959472656	1552.896118164062	470.6850891113281	309.7992858886719	1418.3623046875	448.2096862792969	298.1135864257812	1200.64697265625	439.194580078125	315.3487548828125	1190.795043945312	526.27099609375	384.074462890625	941.21435546875	379.8945007324219	321.4570922851562	917.1218872070312	440.527099609375	301.7672119140625	1083.99072265625	427.37255859375	407.7476806640625	745.3995361328125	383.6079711914062	337.9401245117188	840.1668701171875	420.0599975585938	383.5988159179688	850.3562622070312	368.5264892578125	624.2561645507812	1576.796997070312	721.3485107421875	662.8403930664062	1504.7724609375	776.625244140625	683.3712768554688	1211.016967773438	799.508544921875	608.5460815429688	1204.1142578125	735.5431518554688	799.8140258789062	983.2085571289062	681.0545043945312	768.583984375	959.3909912109375	753.5865478515625	716.7142944335938	1140.175659179688	791.6408081054688	823.5592041015625	793.848876953125	636.8002319335938	834.524169921875	879.9672241210938	657.5723876953125	805.9969482421875	863.41015625	723.668701171875	547.8692626953125	1761.601318359375	664.2542724609375	476.5727233886719	1831.532836914062	467.6576538085938	595.2789306640625	1851.120483398438	516.771728515625	421.4692687988281	1745.451416015625	620.4702758789062	416.8902282714844	1034.934692382812	432.8815002441406	681.890625	1008.867065429688	680.8173217773438	712.02685546875	1085.62451171875	589.4481811523438	524.977783203125	1097.927734375	400.4242858886719	552.0350341796875	540.764404296875	381.7970886230469	484.5312194824219	676.9613647460938	394.5933532714844	577.1710205078125	32.50251388549805	427.34765625	517.3906860351562	278.1639099121094	413.0112609863281	756.9691162109375	43.23892211914062	276.2726440429688	738.716796875	43.61016464233398	358.5552673339844	632.0202026367188	42.11420440673828	314.3253173828125	588.7177124023438	33.38725280761719	518.565673828125	654.9229125976562	513.0502319335938	680.9677734375	688.4830322265625	796.4091796875	664.0196533203125	375.3605041503906	137.9832458496094	949.9337158203125	595.8716430664062	409.5533142089844	759.6378173828125	479.3406677246094	38.94700241088867	784.2257080078125	411.5527648925781	49.90840148925781	783.9972534179688	459.8302307128906	52.32174301147461	895.2189331054688	313.1925354003906	179.4125671386719	936.9619750976562	
354	3.53	518.6666259765625	1108.290649414062	674.0670166015625	429.1055297851562	1115.60986328125	578.268798828125	466.626220703125	1146.501220703125	632.2049560546875	623.7174072265625	1352.759033203125	480.2204284667969	457.909912109375	1294.63134765625	664.97412109375	458.1109924316406	1588.458740234375	637.8595581054688	589.5189819335938	1486.879272460938	502.48193359375	494.4352416992188	1405.312866210938	734.748291015625	377.0921325683594	1566.770629882812	575.1124877929688	381.2287292480469	1554.074584960938	464.6631774902344	314.40478515625	1419.738159179688	442.1184692382812	302.4988708496094	1202.039672851562	432.4222106933594	320.0714721679688	1191.714599609375	519.407958984375	389.3363342285156	943.556640625	370.7451171875	327.4876708984375	918.404052734375	431.3501586914062	306.4945373535156	1085.484497070312	419.6991271972656	414.4727478027344	747.9793701171875	371.8526916503906	344.13525390625	841.9664916992188	409.7466735839844	389.5621032714844	853.0634765625	357.8776550292969	630.4742431640625	1576.993408203125	714.1121826171875	669.1289672851562	1504.867553710938	769.1800537109375	688.0880737304688	1211.125122070312	792.2310180664062	612.8558349609375	1204.589965820312	728.5545654296875	802.3643798828125	982.0274047851562	674.1241455078125	771.215576171875	958.7393798828125	746.8677978515625	720.8276977539062	1140.039794921875	784.4661865234375	823.9612426757812	792.2639770507812	630.25390625	835.8948974609375	878.3429565429688	650.7537231445312	807.5596923828125	862.2717895507812	717.0482177734375	553.7191162109375	1762.146606445312	657.9357299804688	480.7704772949219	1832.260864257812	461.9942016601562	599.7984619140625	1852.07861328125	510.2646484375	426.9876098632812	1745.789916992188	615.0787353515625	420.8951721191406	1035.759399414062	426.3865356445312	687.5548095703125	1008.916076660156	672.1893310546875	716.7620239257812	1086.1552734375	580.954345703125	528.754638671875	1098.654418945312	393.0950927734375	553.9794921875	540.309814453125	377.8389282226562	486.9650573730469	677.0152587890625	389.9869689941406	577.4576416015625	32.73774337768555	427.3603515625	518.8795776367188	278.286376953125	411.5925598144531	757.6727905273438	42.47646331787109	276.5701599121094	738.9849243164062	42.80324172973633	358.6727905273438	632.3261108398438	42.18647003173828	314.3603515625	588.8604125976562	33.42820358276367	518.5457153320312	667.5948486328125	512.8604125976562	667.1939697265625	696.5469970703125	796.7821655273438	653.4271850585938	385.9029846191406	146.3831176757812	945.7197265625	608.8248291015625	410.4352416992188	746.95263671875	482.738037109375	39.13093185424805	782.3858642578125	415.5807495117188	52.18710327148438	781.593994140625	465.3525695800781	55.10085678100586	892.0055541992188	325.4048461914062	189.8003845214844	932.4314575195312	
355	3.54	524.1458129882812	1108.019897460938	667.2811279296875	434.2300109863281	1115.994018554688	572.0389404296875	472.0547790527344	1146.714233398438	625.6871337890625	628.4051513671875	1353.199584960938	472.6788330078125	463.1497497558594	1295.077392578125	658.3031005859375	463.9336853027344	1588.905517578125	631.5836791992188	594.5311279296875	1487.301879882812	495.36572265625	500.2735290527344	1405.589965820312	727.9494018554688	382.5656127929688	1567.503662109375	569.0753784179688	386.2646789550781	1555.037109375	458.6189270019531	319.0042114257812	1420.89697265625	435.9889526367188	306.8371887207031	1203.20166015625	425.5364379882812	324.6290893554688	1192.400146484375	512.4586181640625	394.6397399902344	945.775390625	361.4384765625	333.4750671386719	919.51708984375	421.9237670898438	311.2161560058594	1086.76123046875	411.8778991699219	421.2078857421875	750.41845703125	359.8330078125	350.3017578125	843.6021728515625	399.1823425292969	395.562744140625	855.6609497070312	347.0702819824219	636.6427001953125	1576.95751953125	706.9463500976562	675.3182373046875	1504.687622070312	761.786376953125	692.8577880859375	1210.9619140625	784.9777221679688	617.1915893554688	1204.758422851562	721.6140747070312	804.9848022460938	980.6550903320312	667.1917724609375	773.937744140625	957.8843383789062	740.1522216796875	725.0202026367188	1139.654663085938	777.2965087890625	824.6852416992188	790.528564453125	623.8388671875	837.4833374023438	876.590087890625	644.0076904296875	809.3291625976562	860.9951782226562	710.4955444335938	559.6422119140625	1762.456909179688	651.6446533203125	484.9865112304688	1832.852661132812	456.4262084960938	604.3511352539062	1852.864868164062	503.8221435546875	432.5983276367188	1745.904541015625	609.7236938476562	424.7809143066406	1036.434204101562	420.1819458007812	693.2555541992188	1008.733215332031	663.6489868164062	721.4642944335938	1086.454223632812	572.561279296875	532.4218139648438	1099.1806640625	385.9328308105469	555.788818359375	539.7908935546875	374.0388488769531	489.3522644042969	677.0298461914062	385.5669860839844	577.7294311523438	32.98694610595703	427.4107971191406	520.2721557617188	278.3807678222656	410.2796325683594	758.249267578125	41.89479446411133	276.8364868164062	739.1771240234375	42.08137512207031	358.7421264648438	632.5554809570312	42.26068878173828	314.4229736328125	589.0211791992188	33.45625305175781	518.556884765625	680.0181884765625	512.6087646484375	652.9707641601562	704.5528564453125	797.0015869140625	642.6651000976562	397.2327270507812	154.3020782470703	940.646484375	621.7222900390625	411.1685791015625	733.7568359375	488.0308227539062	39.60689926147461	779.510009765625	421.3235473632812	54.87295913696289	778.288818359375	472.4050598144531	58.4376220703125	887.9509887695312	338.1231384277344	199.2814331054688	927.2047119140625	
